<?xml version="1.0" standalone="no"?><!DOCTYPE svg PUBLIC "-//W3C//DTD SVG 1.1//EN" "http://www.w3.org/Graphics/SVG/1.1/DTD/svg11.dtd"><svg class="icon" width="200px" height="200.00px" viewBox="0 0 1024 1024" version="1.1" xmlns="http://www.w3.org/2000/svg"><path d="M865.5 448v-30.7c0-47.7-9.4-94-27.8-137.7-17.8-42.1-43.3-79.9-75.8-112.4s-70.3-58-112.4-75.8C606 73 559.6 63.7 511.9 63.7s-94 9.4-137.7 27.8c-42.1 17.8-79.9 43.3-112.4 75.8s-58 70.3-75.8 112.4c-18.5 43.6-27.8 89.9-27.8 137.7v30.9C103.6 470.2 65 523.7 65 586.1v50.4c0 81.8 66.6 148.4 148.4 148.4h1.2c81.8 0 148.4-66.6 148.4-148.4v-50.4c0-73.8-54.2-135.2-124.9-146.6v-22.1c0-150.9 122.7-273.6 273.6-273.6s273.6 122.7 273.6 273.6v22.2c-70.5 11.5-124.5 72.8-124.5 146.5v50.4c0 81.8 66.6 148.4 148.4 148.4h1.2c81.8 0 148.4-66.6 148.4-148.4v-50.4c0.4-62.7-38.5-116.3-93.3-138.1zM283.2 585.9v50.4c0 37.7-30.7 68.4-68.4 68.4h-1.2c-37.7 0-68.4-30.7-68.4-68.4v-50.4c0-37.7 30.7-68.4 68.4-68.4h1.2c37.7 0 68.4 30.7 68.4 68.4z m596 50.5c0 37.7-30.7 68.4-68.4 68.4h-1.2c-37.7 0-68.4-30.7-68.4-68.4V586c0-37.7 30.7-68.4 68.4-68.4h1.2c37.7 0 68.4 30.7 68.4 68.4v50.4zM672.7 828.9L609 892.8c-15.6 15.6-15.6 41 0.1 56.6 7.8 7.8 18 11.7 28.2 11.7 10.3 0 20.5-3.9 28.3-11.8l63.7-63.9c15.6-15.6 15.6-41-0.1-56.6s-40.9-15.6-56.5 0.1z" /></svg>