<?xml version="1.0" standalone="no"?><!DOCTYPE svg PUBLIC "-//W3C//DTD SVG 1.1//EN" "http://www.w3.org/Graphics/SVG/1.1/DTD/svg11.dtd"><svg class="icon" width="200px" height="200.00px" viewBox="0 0 1024 1024" version="1.1" xmlns="http://www.w3.org/2000/svg"><path d="M919.3 350.8c-22.1 0-40 17.9-40 40v313.9c0 31.7-25.8 57.5-57.5 57.5h-82v52.6l-91.1-52.6H416.2c-22.1 0-40 17.9-40 40s17.9 40 40 40h211l192.5 111.2V842.2h2c75.8 0 137.5-61.7 137.5-137.5V390.8c0.1-22.1-17.8-40-39.9-40z" fill="#333333" /><path d="M396.7 649.7h327c43.6 0 79-35.4 79-79V149.6c0-43.6-35.4-79-79-79h-580c-43.6 0-79 35.4-79 79v421.1c0 43.6 35.4 79 79 79h60.5v111.2l192.5-111.2z m-252-80V150.6h578.1v419.1H375.3l-91.1 52.6v-52.6H144.7z" fill="#333333" /></svg>