<?xml version="1.0" standalone="no"?><!DOCTYPE svg PUBLIC "-//W3C//DTD SVG 1.1//EN" "http://www.w3.org/Graphics/SVG/1.1/DTD/svg11.dtd"><svg class="icon" width="200px" height="200.00px" viewBox="0 0 1024 1024" version="1.1" xmlns="http://www.w3.org/2000/svg"><path d="M890.3 259.8h-96.4V63.4H233.4v196.4H63.7v327.8c0 54 16.5 96 49.1 124.7 36.3 32 81.2 37 105.6 37 9 0 15.2-0.7 17.1-0.9l35-4.4v-86.4h481l0.7 90.1h208.1V329.8c0-38.6-31.4-70-70-70zM313.4 143.4h400.5v116.1H313.4V143.4z m566.9 524.3h-48.7l-0.7-90.1H190.5v87.9c-8.7-2.5-17.7-6.7-25.2-13.4-14.4-12.9-21.7-34.6-21.7-64.4V339.8h736.7v327.9zM680.1 693.6c-22.1 0-40 17.9-40 40v146.9H381.5V733.6c0-22.1-17.9-40-40-40s-40 17.9-40 40v182.7c0 24.4 19.7 44.2 44 44.2h330.6c24.3 0 44-19.8 44-44.2V733.6c0-22-17.9-40-40-40zM276 464.6h195c22.1 0 40-17.9 40-40s-17.9-40-40-40H276c-22.1 0-40 17.9-40 40s17.9 40 40 40z" /></svg>