<?xml version="1.0" standalone="no"?><!DOCTYPE svg PUBLIC "-//W3C//DTD SVG 1.1//EN" "http://www.w3.org/Graphics/SVG/1.1/DTD/svg11.dtd"><svg class="icon" width="200px" height="200.00px" viewBox="0 0 1024 1024" version="1.1" xmlns="http://www.w3.org/2000/svg"><path d="M854.32 988H177.68c-60.48 0-109.68-49.2-109.68-109.68V201.68c0-60.48 49.2-109.68 109.68-109.68h676.72c60.48 0 109.68 49.2 109.68 109.68v676.72c-0.08 60.4-49.28 109.6-109.76 109.6z m-676.64-856c-38.4 0-69.68 31.28-69.68 69.68v676.72c0 38.4 31.28 69.68 69.68 69.68h676.72c38.4 0 69.68-31.28 69.68-69.68V201.68c0-38.4-31.28-69.68-69.68-69.68H177.68z"  /><path d="M726.08 184H305.92A25.92 25.92 0 0 1 280 158.08v-60.24C280 83.6 291.6 72 305.92 72h420.24C740.4 72 752 83.6 752 97.92v60.24c0 14.24-11.6 25.84-25.92 25.84z" fill="#FF826E" /><path d="M720 104v48H312v-48h408m6.08-32H305.92A25.92 25.92 0 0 0 280 97.92v60.24a25.92 25.92 0 0 0 25.92 25.92h420.24a25.92 25.92 0 0 0 25.92-25.92v-60.24A26.032 26.032 0 0 0 726.08 72zM264 344h496v32H264zM264 528h496v32H264z"  /><path d="M384 720h256v32H384zM598.08 136H433.92A25.92 25.92 0 0 1 408 110.08V33.92A25.92 25.92 0 0 1 433.92 8h164.24C612.4 8 624 19.6 624 33.92v76.24c0 14.24-11.6 25.84-25.92 25.84z" fill="#FF826E" /><path d="M598.08 32c1.04 0 1.92 0.88 1.92 1.92v76.24c0 1.04-0.88 1.92-1.92 1.92H433.92a2.08 2.08 0 0 1-1.92-2V33.92c0-1.04 0.88-1.92 1.92-1.92h164.16m0-24H433.92A25.92 25.92 0 0 0 408 33.92v76.24a25.92 25.92 0 0 0 25.92 25.92h164.24a25.92 25.92 0 0 0 25.92-25.92V33.92A26.032 26.032 0 0 0 598.08 8z"  /><path d="M312 104h408v48H312z" fill="#FF826E" /></svg>