<?xml version="1.0" standalone="no"?><!DOCTYPE svg PUBLIC "-//W3C//DTD SVG 1.1//EN" "http://www.w3.org/Graphics/SVG/1.1/DTD/svg11.dtd"><svg class="icon" width="200px" height="200.00px" viewBox="0 0 1024 1024" version="1.1" xmlns="http://www.w3.org/2000/svg"><path d="M877 160.8H147c-44.7 0-81.1 33.3-81.1 74.2v554.2c0 40.9 36.4 74.2 81.1 74.2h730c44.7 0 81.1-33.3 81.1-74.2V234.9c0-40.9-36.4-74.1-81.1-74.1zM394.4 649.9L161 831c-7.5 5.8-16.7 8.7-25.9 8.7-11.3 0-22.6-4.4-30.5-12.9-14.3-15.4-12.2-38.5 4.6-51.5l233.4-181.1c16.8-13.1 42.1-11.2 56.4 4.2 14.3 15.3 12.2 38.4-4.6 51.5z m524.4 176.8c-7.9 8.6-19.2 13-30.6 13-9.1 0-18.3-2.8-25.8-8.6L629.9 651.3c-16.9-13-19-36.1-4.7-51.5s39.5-17.4 56.4-4.3l232.6 179.7c16.7 13 18.9 36.1 4.6 51.5z m-0.4-578.4l-294.8 228c-31.1 24.1-70.7 37.3-111.5 37.3h-0.1c-40.8 0-80.5-13.3-111.6-37.5L108.6 247c-16.3-12.6-18.3-34.9-4.5-49.8 13.8-14.9 38.2-16.7 54.4-4.1l291.8 229.1c35.7 27.7 87.6 27.7 123.4 0.1l294.8-228c16.3-12.6 40.7-10.7 54.4 4.2 13.9 14.9 11.8 37.2-4.5 49.8z" fill="#333333" /></svg>