<?xml version="1.0" standalone="no"?><!DOCTYPE svg PUBLIC "-//W3C//DTD SVG 1.1//EN" "http://www.w3.org/Graphics/SVG/1.1/DTD/svg11.dtd"><svg class="icon" width="200px" height="200.00px" viewBox="0 0 1024 1024" version="1.1" xmlns="http://www.w3.org/2000/svg"><path d="M879.7 238.1h-27c16.3-54.1 9.6-104.3-19.8-136.5-15.7-17.2-36.9-29.1-61.3-34.4-21.5-4.7-45.1-4.4-70.3 0.8-47.4 9.7-96.9 36.4-139.3 75-19 17.3-35.9 36.4-49.9 56.5-14.1-20-30.9-39.2-49.9-56.5-42.4-38.6-91.8-65.2-139.3-75-25.2-5.2-48.8-5.4-70.3-0.8-24.5 5.3-45.7 17.2-61.3 34.4-30.6 33.6-37.6 82.9-20.6 136.5h-26.2c-44.1 0-80 35.9-80 80v149.2c0 38.7 27.6 71.1 64.2 78.4v334.4c0 44.1 35.9 80 80 80h609.2c44.1 0 80-35.9 80-80V545.2c35.4-8.2 61.9-40 61.9-77.9V318.1c-0.1-44.1-36-80-80.1-80z m0 80.1v149.1s0 0.1-0.1 0.1H552.3V318.1l327.4 0.1c-0.1-0.1-0.1-0.1 0 0zM615.8 202c31.4-28.6 68.4-49 101.5-55.7 25.8-5.3 46.3-1.9 56.4 9.1 10.7 11.7 11.7 43.7-6.6 82.7H582.8c9.5-12.6 20.6-24.8 33-36.1z m-365.5-46.6c10.1-11.1 30.7-14.4 56.4-9.1 33.1 6.8 70 27.1 101.5 55.7 12.4 11.3 23.5 23.4 33.1 36.1H256.8c-17.7-35.2-20.2-67.6-6.5-82.7z m-106 162.8c0.1-0.1 0.1-0.1 0 0l327.9-0.1v149.2H144.4s-0.1 0-0.1-0.1v-149z m64.2 561.9V547.3h263.7v332.8H208.5c0.1 0 0 0 0 0z m609.2 0.1H552.3V547.3h265.5l-0.1 332.9c0-0.1 0-0.1 0 0z" /></svg>