<?xml version="1.0" standalone="no"?><!DOCTYPE svg PUBLIC "-//W3C//DTD SVG 1.1//EN" "http://www.w3.org/Graphics/SVG/1.1/DTD/svg11.dtd"><svg class="icon" width="200px" height="200.00px" viewBox="0 0 1024 1024" version="1.1" xmlns="http://www.w3.org/2000/svg"><path d="M924.6 337.7c-22.6-53.3-54.8-101.2-95.9-142.3-41.1-41.1-89-73.4-142.3-95.9-55.3-23.4-114-35.3-174.4-35.3-60.4 0-119.1 11.8-174.3 35.2-53.3 22.6-101.2 54.8-142.3 95.9-41.1 41.1-73.4 89-95.9 142.3-23.4 55.3-35.3 114-35.3 174.4S76 631.1 99.4 686.3c22.6 53.3 54.8 101.2 95.9 142.3 41.1 41.1 89 73.4 142.3 95.9 55.2 23.4 113.9 35.2 174.3 35.2 60.4 0 119.1-11.8 174.3-35.2 53.3-22.6 101.2-54.8 142.3-95.9 41.1-41.1 73.4-89 95.9-142.3 23.4-55.2 35.2-113.9 35.2-174.3s-11.7-119.1-35-174.3zM512 879.8c-202.8 0-367.8-165-367.8-367.8s165-367.8 367.8-367.8 367.8 165 367.8 367.8-165 367.8-367.8 367.8z" fill="#333333" /><path d="M467.053686 300.688528a46.2 46.2 0 1 0 89.926919-21.234623 46.2 46.2 0 1 0-89.926919 21.234623Z" fill="#333333" /><path d="M512 389c-22.1 0-40 17.9-40 40v317.9c0 22.1 17.9 40 40 40s40-17.9 40-40V429c0-22-17.9-40-40-40z" fill="#333333" /></svg>