<?xml version="1.0" standalone="no"?><!DOCTYPE svg PUBLIC "-//W3C//DTD SVG 1.1//EN" "http://www.w3.org/Graphics/SVG/1.1/DTD/svg11.dtd"><svg class="icon" width="200px" height="200.00px" viewBox="0 0 1024 1024" version="1.1" xmlns="http://www.w3.org/2000/svg"><path d="M868.4 65.4H655c-49.9 0-90.4 40.6-90.4 90.4v222c0 49.9 40.6 90.4 90.4 90.4h213.3c49.9 0 90.4-40.6 90.4-90.4v-222c0.1-49.8-40.5-90.4-90.3-90.4z m10.4 312.4c0 5.7-4.7 10.4-10.4 10.4H655c-5.7 0-10.4-4.7-10.4-10.4v-222c0-5.7 4.7-10.4 10.4-10.4h213.3c5.7 0 10.4 4.7 10.4 10.4v222zM868.4 555.8H655c-49.9 0-90.4 40.6-90.4 90.4v222c0 49.9 40.6 90.4 90.4 90.4h213.3c49.9 0 90.4-40.6 90.4-90.4v-222c0.1-49.9-40.5-90.4-90.3-90.4z m10.4 312.4c0 5.7-4.7 10.4-10.4 10.4H655c-5.7 0-10.4-4.7-10.4-10.4v-222c0-5.7 4.7-10.4 10.4-10.4h213.3c5.7 0 10.4 4.7 10.4 10.4v222zM369 65.4H155.6c-49.9 0-90.4 40.6-90.4 90.4v222c0 49.9 40.6 90.4 90.4 90.4H369c49.9 0 90.4-40.6 90.4-90.4v-222c0-49.8-40.6-90.4-90.4-90.4z m10.4 312.4c0 5.7-4.7 10.4-10.4 10.4H155.6c-5.7 0-10.4-4.7-10.4-10.4v-222c0-5.7 4.7-10.4 10.4-10.4H369c5.7 0 10.4 4.7 10.4 10.4v222zM369 555.8H155.6c-49.9 0-90.4 40.6-90.4 90.4v222c0 49.9 40.6 90.4 90.4 90.4H369c49.9 0 90.4-40.6 90.4-90.4v-222c0-49.9-40.6-90.4-90.4-90.4z m10.4 312.4c0 5.7-4.7 10.4-10.4 10.4H155.6c-5.7 0-10.4-4.7-10.4-10.4v-222c0-5.7 4.7-10.4 10.4-10.4H369c5.7 0 10.4 4.7 10.4 10.4v222z" fill="#333333" /></svg>