<?xml version="1.0" standalone="no"?><!DOCTYPE svg PUBLIC "-//W3C//DTD SVG 1.1//EN" "http://www.w3.org/Graphics/SVG/1.1/DTD/svg11.dtd"><svg class="icon" width="200px" height="200.00px" viewBox="0 0 1024 1024" version="1.1" xmlns="http://www.w3.org/2000/svg"><path d="M369.2 557.3H152.9c-49 0-88.9 39.9-88.9 88.9v225c0 49 39.9 88.9 88.9 88.9h216.3c49 0 88.9-39.9 88.9-88.9v-225c0-49-39.9-88.9-88.9-88.9z m8.9 313.8c0 4.9-4 8.9-8.9 8.9H152.9c-4.9 0-8.9-4-8.9-8.9v-225c0-4.9 4-8.9 8.9-8.9h216.3c4.9 0 8.9 4 8.9 8.9v225zM369.2 64H152.9c-49 0-88.9 39.9-88.9 88.9v225c0 49 39.9 88.9 88.9 88.9h216.3c49 0 88.9-39.9 88.9-88.9v-225c0-49-39.9-88.9-88.9-88.9z m8.9 313.8c0 4.9-4 8.9-8.9 8.9H152.9c-4.9 0-8.9-4-8.9-8.9v-225c0-4.9 4-8.9 8.9-8.9h216.3c4.9 0 8.9 4 8.9 8.9v225zM575.7 222.4H920c22.1 0 40-17.9 40-40s-17.9-40-40-40H575.7c-22.1 0-40 17.9-40 40s17.9 40 40 40zM920 319.3H575.7c-22.1 0-40 17.9-40 40s17.9 40 40 40H920c22.1 0 40-17.9 40-40s-17.9-40-40-40zM920 624.7H575.7c-22.1 0-40 17.9-40 40s17.9 40 40 40H920c22.1 0 40-17.9 40-40s-17.9-40-40-40zM920 801.6H575.7c-22.1 0-40 17.9-40 40s17.9 40 40 40H920c22.1 0 40-17.9 40-40s-17.9-40-40-40z" fill="#333333" /></svg>